<?xml version="1.0" encoding="UTF-8" standalone="no"?>
<svg width="77px" height="96px" viewBox="0 0 77 96" version="1.1" xmlns="http://www.w3.org/2000/svg" xmlns:xlink="http://www.w3.org/1999/xlink" xmlns:sketch="http://www.bohemiancoding.com/sketch/ns">
    <!-- Generator: Sketch 3.3.2 (12043) - http://www.bohemiancoding.com/sketch -->
    <title>baby</title>
    <desc>Created with Sketch.</desc>
    <defs></defs>
    <g id="Page-1" stroke="none" stroke-width="1" fill="none" fill-rule="evenodd" sketch:type="MSPage">
        <g id="baby" sketch:type="MSLayerGroup" transform="translate(-19.000000, -11.000000)">
            <g id="Page-1" sketch:type="MSShapeGroup">
                <g id="noun_67652_cc">
                    <path d="M114.498732,119.673767 L0.322026734,119.673767 L0.322026734,0.653955013 L114.498732,0.653955013 L114.498732,119.673767 L114.498732,119.673767 Z M1.5767158,118.365857 L113.244043,118.365857 L113.244043,1.96186504 L1.5767158,1.96186504 L1.5767158,118.365857 L1.5767158,118.365857 Z" id="Shape"></path>
                    <ellipse id="Oval" fill="#7F055F" cx="38.5900433" cy="72.740724" rx="6.27344534" ry="6.53955013"></ellipse>
                    <ellipse id="Oval" fill="#7F055F" cx="38.5900433" cy="84.5119142" rx="1.25468907" ry="1.30791003"></ellipse>
                    <ellipse id="Oval" fill="#7F055F" cx="42.3541105" cy="81.8960941" rx="1.25468907" ry="1.30791003"></ellipse>
                    <ellipse id="Oval" fill="#7F055F" cx="34.8259761" cy="81.8960941" rx="1.25468907" ry="1.30791003"></ellipse>
                    <ellipse id="Oval" fill="#7F055F" cx="76.2307154" cy="84.5119142" rx="1.25468907" ry="1.30791003"></ellipse>
                    <ellipse id="Oval" fill="#7F055F" cx="79.9947826" cy="81.8960941" rx="1.25468907" ry="1.30791003"></ellipse>
                    <ellipse id="Oval" fill="#7F055F" cx="72.4666482" cy="81.8960941" rx="1.25468907" ry="1.30791003"></ellipse>
                    <ellipse id="Oval" fill="#7F055F" cx="76.2307154" cy="72.740724" rx="6.27344534" ry="6.53955013"></ellipse>
                    <path d="M57.4103794,93.6672844 C55.0139232,93.6672844 52.8144533,92.5189394 51.3778343,90.5152212 C50.9625322,89.937125 51.0767089,89.1183733 51.6312815,88.6854551 C52.1845994,88.249921 52.9725441,88.3728646 53.3865915,88.9496529 C54.345174,90.285029 55.8119055,91.0514643 57.4091247,91.0514643 C59.0126173,91.0514643 60.4818582,90.2797974 61.4404406,88.9365738 C61.8532333,88.3584776 62.637414,88.2381499 63.1957506,88.6671443 C63.7515779,89.0987547 63.8670093,89.9175063 63.4542166,90.4969105 C62.0389273,92.4823179 59.780487,93.6672844 57.4103794,93.6672844 L57.4103794,93.6672844 L57.4103794,93.6672844 Z" id="Shape" fill="#7F055F"></path>
                    <path d="M60.4843676,28.4130374 C57.4831513,27.4961925 55.2824267,24.6044034 55.2824267,21.1829108 C55.2824267,18.0740086 57.7089954,15.5432027 60.6913913,15.5432027 C62.8695315,15.5432027 64.6411525,17.3912796 64.6411525,19.6618114 C64.6411525,21.2626933 63.3927368,22.5640638 61.8569974,22.5640638 C60.8369352,22.5640638 60.006331,21.6982273 60.006331,20.6348965 C60.006331,19.5506391 59.16318,18.6730314 58.1242974,18.6730314 C57.0841602,18.6730314 56.2422638,19.5506391 56.2422638,20.6348965 C56.2422638,23.8615105 58.7604248,26.4877938 61.8569974,26.4877938 C65.4679926,26.4877938 68.4052197,23.4259765 68.4052197,19.6618114 C68.4052197,15.2266885 64.9447872,11.6194727 60.6913913,11.6194727 C55.6337396,11.6194727 51.5183595,15.9094175 51.5183595,21.1829108 C51.5183595,23.9347535 52.4531028,26.4616356 54.0089173,28.4391956 C34.8146839,30.2323402 19.7697073,47.0337524 19.7697073,67.5090839 C19.7697073,89.1798451 36.6214362,106.746385 57.4103794,106.746385 C78.1993225,106.746385 95.0510514,89.1798451 95.0510514,67.5090839 C95.0510514,46.9186563 79.8341824,30.0453091 60.4843676,28.4130374 L60.4843676,28.4130374 L60.4843676,28.4130374 Z M57.4103794,102.822655 C38.7305685,102.822655 23.5337745,86.9812483 23.5337745,67.5090839 C23.5337745,48.0369194 38.7305685,32.1955132 57.4103794,32.1955132 C76.0901902,32.1955132 91.2869842,48.0369194 91.2869842,67.5090839 C91.2869842,86.9812483 76.0901902,102.822655 57.4103794,102.822655 L57.4103794,102.822655 L57.4103794,102.822655 Z" id="Shape" fill="#7F055F"></path>
                </g>
            </g>
        </g>
    </g>
</svg>