<?xml version="1.0" encoding="UTF-8" standalone="no"?>
<svg width="88px" height="84px" viewBox="0 0 88 84" version="1.1" xmlns="http://www.w3.org/2000/svg" xmlns:xlink="http://www.w3.org/1999/xlink" xmlns:sketch="http://www.bohemiancoding.com/sketch/ns">
    <!-- Generator: Sketch 3.3.2 (12043) - http://www.bohemiancoding.com/sketch -->
    <title>mobile</title>
    <desc>Created with Sketch.</desc>
    <defs></defs>
    <g id="Page-1" stroke="none" stroke-width="1" fill="none" fill-rule="evenodd" sketch:type="MSPage">
        <g id="mobile" sketch:type="MSLayerGroup" fill="#FFFFFF">
            <g id="Page-1" sketch:type="MSShapeGroup">
                <g id="noun_65299_cc">
                    <path d="M87.4704321,64.9697297 C87.2574691,64.4681081 86.6867284,64.1016216 86.0024074,64.027027 L73.8961728,62.6875676 L68.6700617,54.6237838 L68.6700617,39.6972973 L82.0214198,39.6972973 C83.0266049,39.6972973 83.8401235,39.0778378 83.8401235,38.3124324 C83.8401235,29.8767568 75.1711111,22.9535135 64.2603086,22.4389189 C63.4098765,18.5654054 58.9759877,15.6032432 53.6490741,15.6032432 L45.806358,15.6032432 L45.806358,2.01621622 C45.806358,1.25081081 44.9928395,0.631351351 43.9876543,0.631351351 C42.9824691,0.631351351 42.1689506,1.25189189 42.1689506,2.01621622 L42.1689506,15.6032432 L34.3262346,15.6032432 C29.0007407,15.6032432 24.5668519,18.5654054 23.7164198,22.4389189 C12.8056173,22.9545946 4.13660494,29.8767568 4.13660494,38.3124324 C4.13660494,39.0778378 4.95012346,39.6972973 5.95530864,39.6972973 L19.3066667,39.6972973 L19.3066667,46.4562162 L14.0791358,54.5210811 L1.97290123,55.8605405 C1.28858025,55.9351351 0.717839506,56.3016216 0.504876543,56.8032432 C0.29191358,57.3048649 0.470802469,57.8551351 0.964876543,58.2227027 L9.72475309,64.7243243 L7.65759259,73.9048649 C7.53975309,74.4237838 7.8208642,74.9502703 8.38166667,75.2594595 C8.6982716,75.4356757 9.07308642,75.5243243 9.45074074,75.5243243 C9.74037037,75.5243243 10.0314198,75.4713514 10.2983333,75.3654054 L21.1267901,71.0302703 L31.9538272,75.3654054 C32.2207407,75.4724324 32.5117901,75.5243243 32.8014198,75.5243243 L32.8298148,75.5243243 C33.835,75.5243243 34.6499383,74.9048649 34.6499383,74.1394595 C34.6499383,73.9740541 34.6116049,73.8151351 34.542037,73.6681081 L32.5274074,64.7243243 L41.287284,58.2227027 C41.7827778,57.8540541 41.9616667,57.3037838 41.747284,56.8032432 C41.5329012,56.3027027 40.9635802,55.9351351 40.2792593,55.8605405 L28.1730247,54.5210811 L22.9469136,46.4562162 L22.9469136,39.6972973 L65.0340741,39.6972973 L65.0340741,54.6227027 L59.807963,62.6864865 L47.7017284,64.0259459 C47.0174074,64.1005405 46.4466667,64.467027 46.2337037,64.9686486 C46.0207407,65.4691892 46.1982099,66.0205405 46.6937037,66.3881081 L55.4535802,72.8908108 L53.3864198,82.0713514 C53.2685802,82.5902703 53.5496914,83.1167568 54.1104938,83.427027 C54.6698765,83.7372973 55.4138272,83.7762162 56.0271605,83.5318919 L66.8541975,79.1967568 L77.6812346,83.5318919 C77.9481481,83.6389189 78.2391975,83.6908108 78.5288272,83.6908108 C78.5373457,83.6897297 78.5458642,83.6897297 78.5572222,83.6908108 C79.5624074,83.6908108 80.3773457,83.0713514 80.3773457,82.3059459 C80.3773457,82.1405405 80.3390123,81.9816216 80.2694444,81.8345946 L78.2548148,72.8908108 L87.0146914,66.3881081 C87.5059259,66.0216216 87.6833951,65.4702703 87.4704321,64.9697297 L87.4704321,64.9697297 L87.4704321,64.9697297 Z M26.7007407,57.1578378 L36.1051852,58.1989189 L29.3003086,63.2497297 C28.8715432,63.5686486 28.677037,64.027027 28.7778395,64.4767568 L30.3835802,71.6086486 L21.972963,68.2421622 C21.4405556,68.0291892 20.8116049,68.0291892 20.2791975,68.2421622 L11.8671605,71.6097297 L13.4729012,64.4767568 C13.5737037,64.027027 13.3791975,63.5686486 12.9504321,63.2497297 L6.14555556,58.1989189 L15.55,57.1578378 C16.142037,57.0918919 16.6531481,56.8097297 16.9200617,56.4010811 L21.1267901,49.9113514 L25.3320988,56.4010811 C25.5975926,56.8097297 26.1087037,57.0918919 26.7007407,57.1578378 L26.7007407,57.1578378 L26.7007407,57.1578378 Z M25.0225926,25.1783784 L25.3888889,25.1783784 C26.3940741,25.1783784 27.2075926,24.5578378 27.2075926,23.7935135 C27.2075926,20.8043243 30.4006173,18.372973 34.3262346,18.372973 L53.6504938,18.372973 C57.5761111,18.372973 60.7705556,20.8043243 60.7705556,23.7935135 C60.7705556,24.5589189 61.5840741,25.1783784 62.5892593,25.1783784 L62.9555556,25.1783784 C71.8517284,25.1783784 79.1961111,30.3340541 80.1075926,36.9275676 L7.8691358,36.9275676 C8.78061728,30.3340541 16.1264198,25.1783784 25.0225926,25.1783784 L25.0225926,25.1783784 L25.0225926,25.1783784 Z M75.0248765,71.4172973 C74.5961111,71.7351351 74.4016049,72.1935135 74.5024074,72.6432432 L76.1081481,79.7751351 L67.6975309,76.4075676 C67.4306173,76.3005405 67.1409877,76.2486486 66.8499383,76.2486486 C66.5588889,76.2486486 66.2692593,76.3016216 66.0023457,76.4075676 L57.5917284,79.7740541 L59.1974691,72.6421622 C59.2982716,72.1924324 59.1037654,71.7340541 58.675,71.4162162 L51.8687037,66.3632432 L61.2745679,65.3221622 C61.8666049,65.2562162 62.377716,64.9740541 62.6446296,64.5654054 L66.8499383,58.0767568 L71.0552469,64.5654054 C71.3221605,64.9740541 71.8332716,65.2572973 72.4253086,65.3221622 L81.8311728,66.3632432 L75.0248765,71.4172973 L75.0248765,71.4172973 Z" id="Shape"></path>
                </g>
            </g>
        </g>
    </g>
</svg>