<?xml version="1.0" encoding="UTF-8" standalone="no"?>
<svg width="114px" height="118px" viewBox="0 0 114 118" version="1.1" xmlns="http://www.w3.org/2000/svg" xmlns:xlink="http://www.w3.org/1999/xlink" xmlns:sketch="http://www.bohemiancoding.com/sketch/ns">
    <!-- Generator: Sketch 3.3.2 (12043) - http://www.bohemiancoding.com/sketch -->
    <title>poussette</title>
    <desc>Created with Sketch.</desc>
    <defs></defs>
    <g id="Page-1" stroke="none" stroke-width="1" fill="none" fill-rule="evenodd" sketch:type="MSPage">
        <g id="poussette" sketch:type="MSLayerGroup" fill="#7F055F">
            <g id="Page-1" sketch:type="MSShapeGroup">
                <g id="Group">
                    <path d="M113.168462,43.8898361 C113.168462,43.4590164 113.159615,43.0301639 113.146346,42.6032787 L112.927404,42.6032787 C112.292692,19.2367213 90.8142308,0.46557377 64.3974038,0.46557377 C63.9108654,0.46557377 63.42875,0.47147541 62.9488462,0.485245902 L62.9488462,42.6032787 L21.5134615,42.6032787 L7.01461538,29.7042623 L0.0725961538,35.877377 L16.6348077,50.6118033 C20.2661538,71.2754098 40.3601923,87.0859016 64.6052885,87.0859016 C91.4268269,87.0839344 113.168462,67.7442623 113.168462,43.8898361 L113.168462,43.8898361 L113.168462,43.8898361 Z" id="Shape"></path>
                    <path d="M43.9163462,87.6898361 C34.7804808,87.6898361 27.3452885,94.3016393 27.3452885,102.430164 C27.3452885,110.558689 34.7782692,117.170492 43.9163462,117.170492 C53.0544231,117.170492 60.4829808,110.558689 60.4829808,102.430164 C60.4829808,94.3016393 53.0522115,87.6898361 43.9163462,87.6898361 L43.9163462,87.6898361 L43.9163462,87.6898361 Z M43.9163462,114.260984 C36.5828846,114.260984 30.6161538,108.953443 30.6161538,102.430164 C30.6161538,95.9068852 36.5806731,90.5993443 43.9163462,90.5993443 C51.2453846,90.5993443 57.2143269,95.9088525 57.2143269,102.430164 C57.2143269,108.951475 51.2475962,114.260984 43.9163462,114.260984 L43.9163462,114.260984 L43.9163462,114.260984 Z" id="Shape"></path>
                    <ellipse id="Oval" stroke="#7F055F" cx="43.9163462" cy="102.432131" rx="3.46769231" ry="3.08459016"></ellipse>
                    <path d="M91.5374038,87.6898361 C82.4015385,87.6898361 74.9685577,94.3016393 74.9685577,102.430164 C74.9685577,110.558689 82.3993269,117.170492 91.5374038,117.170492 C100.673269,117.170492 108.108462,110.558689 108.108462,102.430164 C108.108462,94.3016393 100.673269,87.6898361 91.5374038,87.6898361 L91.5374038,87.6898361 L91.5374038,87.6898361 Z M91.5374038,114.260984 C84.2061538,114.260984 78.2394231,108.953443 78.2394231,102.430164 C78.2394231,95.9068852 84.2039423,90.5993443 91.5374038,90.5993443 C98.8708654,90.5993443 104.837596,95.9088525 104.837596,102.430164 C104.837596,108.951475 98.8686538,114.260984 91.5374038,114.260984 L91.5374038,114.260984 L91.5374038,114.260984 Z" id="Shape"></path>
                    <ellipse id="Oval" stroke="#7F055F" cx="91.5374038" cy="102.432131" rx="3.46769231" ry="3.08459016"></ellipse>
                </g>
            </g>
        </g>
    </g>
</svg>