<?xml version="1.0" encoding="UTF-8" standalone="no"?>
<svg width="114px" height="120px" viewBox="0 0 114 120" version="1.1" xmlns="http://www.w3.org/2000/svg" xmlns:xlink="http://www.w3.org/1999/xlink" xmlns:sketch="http://www.bohemiancoding.com/sketch/ns">
    <!-- Generator: Sketch 3.3.2 (12043) - http://www.bohemiancoding.com/sketch -->
    <title>noun_121973_cc</title>
    <desc>Created with Sketch.</desc>
    <defs></defs>
    <g id="Page-1" stroke="none" stroke-width="1" fill="none" fill-rule="evenodd" sketch:type="MSPage">
        <g id="noun_121973_cc" sketch:type="MSLayerGroup" transform="translate(-1.000000, 0.000000)" fill="#ACB0BD">
            <g id="Group" transform="translate(0.550562, 0.000000)" sketch:type="MSShapeGroup">
                <path d="M26.8787303,0.327652174 L35.0279213,14.9750696 L53.2535393,17.3232435 L40.0661348,28.7255391 L43.180191,44.8241826 L26.8787303,37.221287 L10.5772697,44.8241826 L13.6913258,28.7255391 L0.502382022,17.3232435 L18.728,14.9750696 L26.8787303,0.327652174 Z" id="Shape"></path>
                <path d="M28.7874944,48.6549826 L35.9161124,59.7705826 L50.2841798,60.8668522 L40.5648764,70.3141565 L43.8297865,82.7731304 L30.6947191,77.4952 L18.3447079,84.0987565 L19.9471461,71.3858522 L9.0487191,63.0102435 L23.173573,60.4340783 L28.7874944,48.6549826 Z" id="Shape"></path>
                <path d="M56.889427,83.888513 L62.506427,91.6852696 L72.9307416,92.0033652 L66.3054831,99.148913 L69.1871011,108.043304 L59.4754944,104.660296 L50.8291011,109.83993 L51.4540674,100.604235 L43.2279101,94.9112783 L53.327427,92.5849478 L56.889427,83.888513 Z" id="Shape"></path>
                <path d="M87.3927079,103.132617 L91.2271685,107.748417 L97.6892584,107.561383 L93.9256067,112.222235 L96.1222247,117.613478 L89.9603034,115.881017 L84.8558989,119.401913 L84.8112584,113.668 L79.4621011,110.450183 L85.5963146,108.64127 L87.3927079,103.132617 Z" id="Shape"></path>
                <path d="M108.864764,113.13147 L110.807393,114.683722 L113.34882,114.145826 L112.285146,116.260548 L113.647449,118.237383 L111.049067,117.994374 L109.35427,119.75687 L108.809348,117.487878 L106.398764,116.600487 L108.658494,115.444148 L108.864764,113.13147 Z" id="Shape"></path>
            </g>
        </g>
    </g>
</svg>