<?xml version="1.0" encoding="UTF-8" standalone="no"?>
<svg width="59px" height="59px" viewBox="0 0 59 59" version="1.1" xmlns="http://www.w3.org/2000/svg" xmlns:xlink="http://www.w3.org/1999/xlink" xmlns:sketch="http://www.bohemiancoding.com/sketch/ns">
    <!-- Generator: Sketch 3.3.2 (12043) - http://www.bohemiancoding.com/sketch -->
    <title>noun_17230_cc</title>
    <desc>Created with Sketch.</desc>
    <defs></defs>
    <g id="Page-1" stroke="none" stroke-width="1" fill="none" fill-rule="evenodd" sketch:type="MSPage">
        <g id="noun_17230_cc" sketch:type="MSLayerGroup">
            <g id="Group" sketch:type="MSShapeGroup">
                <path d="M24.0220139,37.4305833 C23.3443333,36.8291111 22.6396111,36.2292778 21.8267222,35.6614028 C21.5407361,35.459 21.380125,35.3172361 21.3235833,35.2606944 C18.8742639,32.7663056 21.3080139,28.1249722 24.8037639,24.6284028 L24.9488056,24.485 C27.1580278,22.3052778 30.480875,19.9813333 33.1924167,20.0018194 C34.5166389,20.0108333 35.3369028,20.5639583 35.7941528,21.0277639 C35.8384028,21.0744722 35.9842639,21.2408194 36.1833889,21.5374583 C36.7266806,22.3396944 37.3019306,23.0337639 37.8812778,23.7057083 C42.9642917,17.169 45.35625,11.453375 43.4010556,9.46376389 C40.72475,6.74976389 30.9258333,12.0474722 21.5235278,21.2981806 C12.1195833,30.5595417 6.67355556,40.2675 9.34248611,42.9905139 C11.3378333,45.0112639 17.2542222,42.6004583 24.0220139,37.4305833 L24.0220139,37.4305833 Z" id="Shape" fill="#7F055F"></path>
                <g id="Shape" fill="#7F055F">
                    <path d="M14.1419722,14.2157222 C13.6240833,14.7270556 13.2037083,15.2949306 12.8300417,15.8832917 C13.0824306,15.7825 13.3331806,15.6776111 13.5708194,15.5383056 C15.1572639,14.609875 17.2075139,15.1367778 18.1457778,16.7183056 C18.9152361,18.0367917 18.7013611,19.6994444 17.6287083,20.7704583 C17.427125,20.9728611 17.2009583,21.1506806 16.9518472,21.2924444 C15.3268889,22.2544722 13.52575,22.7494167 11.689375,22.8665972 C12.0196111,24.2621111 12.64075,25.6043611 13.6347361,26.7524028 C15.4022778,24.5382639 17.4738333,22.2257917 19.7863056,19.9542917 C22.0946806,17.6754167 24.4350139,15.6374583 26.6876667,13.9108889 C23.0976806,10.7117778 17.6106806,10.8027361 14.1419722,14.2157222 L14.1419722,14.2157222 Z"></path>
                    <path d="M8.24934722,21.2350833 C10.9862917,21.9455417 13.8363194,21.5481111 16.2635139,20.1132639 C17.205875,19.565875 17.5180833,18.3530972 16.969875,17.4140139 C16.4134722,16.47575 15.2056111,16.1651806 14.2657083,16.7166667 C12.7390833,17.6164167 10.9559722,17.8671667 9.24415278,17.4238472 C7.52577778,16.9739722 6.08601389,15.8882083 5.18954167,14.3615833 C3.33513889,11.2116389 4.38484722,7.131625 7.54216667,5.27968056 C9.06797222,4.37993056 10.8551806,4.13081944 12.5620833,4.57577778 C13.7978056,4.89536111 14.8778333,5.55665278 15.7292361,6.46459722 C15.8726389,6.61783333 15.9939167,6.78418056 16.1192917,6.94725 C16.2520417,7.11851389 16.3888889,7.28895833 16.5068889,7.47661111 C17.12475,8.47059722 17.4590833,9.58913889 17.5066111,10.72325 C18.77675,10.3405694 20.0927778,10.199625 21.4063472,10.3012361 C21.3055556,8.77952778 20.8548611,7.28895833 20.1140833,5.91475 C20.0780278,5.82297222 20.0698333,5.72545833 20.0182083,5.63777778 C19.9559306,5.53125 19.86825,5.44356944 19.801875,5.34113889 C19.6265139,5.06252778 19.4216528,4.79866667 19.2167917,4.535625 C19.0119306,4.26930556 18.8111667,3.99888889 18.5825417,3.75469444 C18.5300972,3.69897222 18.4948611,3.635875 18.4399583,3.58179167 L18.4178333,3.60309722 C17.087875,2.24773611 15.435875,1.25047222 13.5568889,0.762902778 C10.8265,0.0524444444 7.97565278,0.453972222 5.54272222,1.88718056 C4.77408333,2.33869444 4.08902778,2.86805556 3.48345833,3.46215278 C0.110625,6.78172222 -0.718652778,12.1031944 1.78638889,16.3675833 C3.22041667,18.7964167 5.51076389,20.5303611 8.24934722,21.2350833 L8.24934722,21.2350833 Z"></path>
                </g>
                <path d="M54.64875,54.4701111 L54.5635278,54.5553333 C49.0060556,60.0267639 40.068375,59.9571111 34.5944861,54.4012778 C31.9017917,51.6635139 30.5521667,48.1013889 30.5480694,44.5384444 C30.5431528,44.5294306 30.5431528,44.5179583 30.5431528,44.5146806 C29.7990972,38.1934861 22.9854167,34.0241528 22.7854722,33.8242083 C21.6112083,32.6261806 23.1599583,29.1730417 26.2533611,26.078 C26.2976111,26.03375 26.3426806,25.9886806 26.3893889,25.9436111 C29.5721111,22.8010417 33.135875,21.2498333 34.3298056,22.4634306 C34.5272917,22.663375 38.5851806,29.5434306 44.8940833,30.3825417 C44.9047361,30.385 44.9112917,30.3874583 44.9186667,30.3874583 C48.48325,30.4612083 52.0216111,31.8534444 54.7192222,34.5944861 C60.157875,40.1232778 60.1201806,48.9995 54.64875,54.4701111 M36.9905417,50.2581667 C36.4824861,50.7662222 36.4865833,51.5889444 36.9889028,52.1019167 C41.1664306,56.345 48.0202639,56.3974444 52.266625,52.222375 C52.2682639,52.2207361 52.2699028,52.2190972 52.2723611,52.2166389 C52.782875,51.7053056 52.7869722,50.8743889 52.2772778,50.3630556 C51.7716806,49.8443472 50.9342083,49.8345139 50.4163194,50.3474861 C47.2081944,53.5039861 42.0211111,53.4720278 38.8621528,50.25325 C38.3549167,49.7386389 37.5231806,49.7329028 37.0028333,50.2450556 C36.9995556,50.2491528 36.9938194,50.2540694 36.9905417,50.2581667" id="Shape" fill="#FFE8E8"></path>
            </g>
        </g>
    </g>
</svg>