<?xml version="1.0" encoding="UTF-8" standalone="no"?>
<svg width="83px" height="84px" viewBox="0 0 83 84" version="1.1" xmlns="http://www.w3.org/2000/svg" xmlns:xlink="http://www.w3.org/1999/xlink" xmlns:sketch="http://www.bohemiancoding.com/sketch/ns">
    <!-- Generator: Sketch 3.3.2 (12043) - http://www.bohemiancoding.com/sketch -->
    <title>noun_17230_cc</title>
    <desc>Created with Sketch.</desc>
    <defs></defs>
    <g id="Page-1" stroke="none" stroke-width="1" fill="none" fill-rule="evenodd" sketch:type="MSPage">
        <g id="noun_17230_cc" sketch:type="MSLayerGroup">
            <g id="Group" sketch:type="MSShapeGroup">
                <path d="M33.7936806,53.291 C32.8403333,52.4346667 31.8489444,51.5806667 30.7053889,50.7721667 C30.3030694,50.484 30.077125,50.2821667 29.9975833,50.2016667 C26.5519306,46.6503333 29.9756806,40.0423333 34.8934306,35.0641667 L35.0974722,34.86 C38.2053611,31.7566667 42.879875,28.448 46.6944167,28.4771667 C48.5573056,28.49 49.7112361,29.2775 50.3544861,29.9378333 C50.4167361,30.0043333 50.6219306,30.2411667 50.9020556,30.6635 C51.6663472,31.8056667 52.4755972,32.7938333 53.2906111,33.7505 C60.4412917,24.444 63.80625,16.3065 61.0557222,13.4738333 C57.29075,9.60983333 43.5058333,17.1523333 30.2788611,30.3228333 C17.0495833,43.5085 9.38822222,57.33 13.1428194,61.2068333 C15.9498333,64.0838333 24.2728889,60.6515 33.7936806,53.291 L33.7936806,53.291 Z" id="Shape" fill="#7F055F"></path>
                <g id="Shape" fill="#7F055F">
                    <path d="M19.8946389,20.2393333 C19.1660833,20.9673333 18.5747083,21.7758333 18.0490417,22.6135 C18.4040972,22.47 18.7568472,22.3206667 19.0911528,22.1223333 C21.3229306,20.8005 24.2071806,21.5506667 25.5271111,23.8023333 C26.6095694,25.6795 26.3086944,28.0466667 24.7997083,29.5715 C24.516125,29.8596667 24.1979583,30.1128333 23.8475139,30.3146667 C21.5615556,31.6843333 19.02775,32.389 16.444375,32.5558333 C16.9089444,34.5426667 17.78275,36.4536667 19.1810694,38.0881667 C21.6676111,34.9358333 24.5818333,31.6435 27.8349722,28.4095 C31.0823472,25.165 34.3746806,22.2635 37.5436667,19.8053333 C32.4933472,15.2506667 24.7743472,15.3801667 19.8946389,20.2393333 L19.8946389,20.2393333 Z"></path>
                    <path d="M11.6050139,30.233 C15.4552917,31.2445 19.4646528,30.6786667 22.8791806,28.6358333 C24.204875,27.8565 24.6440833,26.1298333 23.872875,24.7928333 C23.0901389,23.457 21.3909444,23.0148333 20.0687083,23.8 C17.9210833,25.081 15.4126389,25.438 13.0044861,24.8068333 C10.5871111,24.1663333 8.56168056,22.6205 7.30054167,20.447 C4.69180556,15.9623333 6.16851389,10.1535 10.6101667,7.51683333 C12.7566389,6.23583333 15.2708472,5.88116667 17.6720833,6.51466667 C19.4104722,6.96966667 20.9298333,7.91116667 22.1275694,9.20383333 C22.3293056,9.422 22.4999167,9.65883333 22.6762917,9.891 C22.8630417,10.1348333 23.0555556,10.3775 23.2215556,10.6446667 C24.09075,12.0598333 24.5610833,13.6523333 24.6279444,15.267 C26.41475,14.7221667 28.2661111,14.5215 30.1140139,14.6661667 C29.9722222,12.4996667 29.3381944,10.3775 28.2960833,8.421 C28.2453611,8.29033333 28.2338333,8.1515 28.1612083,8.02666667 C28.0735972,7.875 27.95025,7.75016667 27.856875,7.60433333 C27.6101806,7.20766667 27.3219861,6.832 27.0337917,6.4575 C26.7455972,6.07833333 26.4631667,5.69333333 26.1415417,5.34566667 C26.0677639,5.26633333 26.0181944,5.1765 25.9409583,5.0995 L25.9098333,5.12983333 C24.038875,3.20016667 21.714875,1.78033333 19.0715556,1.08616667 C15.2305,0.0746666667 11.2199861,0.646333333 7.79738889,2.68683333 C6.71608333,3.32966667 5.75236111,4.08333333 4.90045833,4.92916667 C0.155625,9.65533333 -1.01098611,17.2316667 2.51305556,23.303 C4.53041667,26.761 7.75243056,29.2296667 11.6050139,30.233 L11.6050139,30.233 Z"></path>
                </g>
                <path d="M76.87875,77.5506667 C76.8407083,77.5891667 76.8003611,77.63 76.7588611,77.672 C68.9407222,85.4618333 56.367375,85.3626667 48.6668194,77.4526667 C44.8787917,73.5548333 42.9801667,68.4833333 42.9744028,63.4106667 C42.9674861,63.3978333 42.9674861,63.3815 42.9674861,63.3768333 C41.9207639,54.3771667 32.3354167,48.4411667 32.0541389,48.1565 C30.4022083,46.4508333 32.5809583,41.5345 36.9326944,37.128 C36.9949444,37.065 37.0583472,37.0008333 37.1240556,36.9366667 C41.6014444,32.4625 46.614875,30.254 48.2944722,31.9818333 C48.5722917,32.2665 54.2808472,42.0618333 63.1560833,43.2565 C63.1710694,43.26 63.1802917,43.2635 63.1906667,43.2635 C68.20525,43.3685 73.1829444,45.3506667 76.9778889,49.2531667 C84.628875,57.1246667 84.5758472,69.762 76.87875,77.5506667 M52.0375417,71.554 C51.3228194,72.2773333 51.3285833,73.4486667 52.0352361,74.179 C57.9120972,80.22 67.5539306,80.2946667 73.527625,74.3505 C73.5299306,74.3481667 73.5322361,74.3458333 73.5356944,74.3423333 C74.253875,73.6143333 74.2596389,72.4313333 73.5426111,71.7033333 C72.8313472,70.9648333 71.6532083,70.9508333 70.9246528,71.6811667 C66.4115278,76.1751667 59.1144444,76.1296667 54.6704861,71.547 C53.9569167,70.8143333 52.7868472,70.8061667 52.0548333,71.5353333 C52.0502222,71.5411667 52.0421528,71.5481667 52.0375417,71.554" id="Shape" fill="#FFE8E8"></path>
            </g>
        </g>
    </g>
</svg>